<?xml version="1.0" encoding="UTF-8"?>
<!-- Generator: Adobe Illustrator 27.8.1, SVG Export Plug-In . SVG Version: 6.00 Build 0)  -->
<svg xmlns="http://www.w3.org/2000/svg" xmlns:xlink="http://www.w3.org/1999/xlink" version="1.1" id="Layer_1" x="0px" y="0px" viewBox="0 0 16 16" style="enable-background:new 0 0 16 16;" xml:space="preserve">
<g>
	<g>
		<path d="M11.4,2.5L11.4,2.5c0.1,0,0.1,0,0.2,0l0,0h0c1.8,0,3.3,1.5,3.4,3.4c0,2.9-4.7,6.2-7,7.6c-2.3-1.4-7-4.7-7-7.6    C1,4,2.5,2.5,4.4,2.5C5.6,2.5,6.5,3,7.1,4L8,5.4L8.9,4C9.4,3.1,10.4,2.5,11.4,2.5 M11.4,1.5c-1.3,0-2.6,0.8-3.4,2    c-0.8-1.3-2.1-2-3.6-2C1.9,1.5,0,3.5,0,5.9c0,4.3,8,8.7,8,8.7s8-4.3,8-8.7c-0.1-2.4-2-4.4-4.4-4.4C11.5,1.5,11.4,1.5,11.4,1.5    L11.4,1.5z"></path>
	</g>
</g>
</svg>
